<svg xmlns="http://www.w3.org/2000/svg" viewBox="0 0 32 32" fill="none">
  <!-- Shield background -->
  <path d="M16 2L4 7v8c0 7.5 5.2 14.5 12 16.5C22.8 29.5 28 22.5 28 15V7L16 2z" fill="#0a1628"/>
  <!-- Shield border -->
  <path d="M16 2L4 7v8c0 7.5 5.2 14.5 12 16.5C22.8 29.5 28 22.5 28 15V7L16 2z" fill="none" stroke="#c9a84c" stroke-width="1.5"/>
  <!-- House roof -->
  <path d="M10 15.5L16 10.5L22 15.5" stroke="white" stroke-width="1.5" stroke-linecap="round" stroke-linejoin="round"/>
  <!-- House body -->
  <rect x="12" y="15.5" width="8" height="6" rx="0.5" stroke="white" stroke-width="1.2" fill="none"/>
  <!-- Window -->
  <rect x="14.5" y="17.5" width="3" height="2.5" rx="0.3" stroke="white" stroke-width="0.8" fill="none"/>
  <!-- Gold trend arrow line -->
  <path d="M9.5 22L13.5 18L17 20.5L22.5 14" stroke="#c9a84c" stroke-width="1.5" stroke-linecap="round" stroke-linejoin="round"/>
  <!-- Arrow head -->
  <path d="M20 13.5L22.5 14L22 16.5" stroke="#c9a84c" stroke-width="1.5" stroke-linecap="round" stroke-linejoin="round"/>
</svg>
